<?xml version="1.0" encoding="utf-8"?>
<!-- Generator: Adobe Illustrator 19.0.0, SVG Export Plug-In . SVG Version: 6.00 Build 0)  -->
<svg version="1.1" id="Capa_1" xmlns="http://www.w3.org/2000/svg" xmlns:xlink="http://www.w3.org/1999/xlink" x="0px" y="0px"
	 viewBox="0 0 160 60" style="enable-background:new 0 0 160 60;" xml:space="preserve">
<style type="text/css">
	.st0{fill:url(#XMLID_2_);}
	.st1{fill:#FFFFFF;}
	.st2{font-family:'IntegralCF-Medium';}
	.st3{font-size:2.7765px;}
	.st4{fill:url(#XMLID_3_);}
	.st5{fill:url(#XMLID_4_);}
	.st6{fill:url(#XMLID_5_);}
	.st7{fill:url(#XMLID_6_);}
	.st8{fill:url(#XMLID_7_);}
	.st9{fill:url(#XMLID_8_);}
	.st10{fill:url(#XMLID_9_);}
	.st11{fill:url(#XMLID_10_);}
	.st12{fill:url(#XMLID_11_);}
	.st13{fill:url(#XMLID_12_);}
	.st14{fill:url(#XMLID_13_);}
	.st15{fill:url(#XMLID_14_);}
	.st16{fill:url(#XMLID_15_);}
	.st17{fill:url(#XMLID_16_);}
	.st18{fill:url(#XMLID_17_);}
</style>
<g id="XMLID_756_">
	<g id="XMLID_778_">
		<linearGradient id="XMLID_2_" gradientUnits="userSpaceOnUse" x1="67.7169" y1="12.5737" x2="72.3744" y2="12.5737">
			<stop  offset="0" style="stop-color:#DB569F"/>
			<stop  offset="0.1017" style="stop-color:#CB549E"/>
			<stop  offset="0.4161" style="stop-color:#9C4D9D"/>
			<stop  offset="0.6814" style="stop-color:#7B499C"/>
			<stop  offset="0.884" style="stop-color:#65479C"/>
			<stop  offset="1" style="stop-color:#5D469B"/>
		</linearGradient>
		<path id="XMLID_780_" class="st0" d="M69.3,13.8l-1.3-1c-0.5-0.4-0.4-1.2,0.2-1.4l1.5-0.6l1.5-0.6c0.6-0.2,1.2,0.2,1.1,0.9
			l-0.2,1.6l-0.2,1.6c-0.1,0.6-0.8,0.9-1.3,0.5L69.3,13.8z"/>
		<text id="XMLID_779_" transform="matrix(1 0 0 1 69.3872 13.4014)" class="st1 st2 st3">R</text>
	</g>
	<linearGradient id="XMLID_3_" gradientUnits="userSpaceOnUse" x1="34.6658" y1="48.573" x2="42.8316" y2="48.573">
		<stop  offset="0" style="stop-color:#DB569F"/>
		<stop  offset="0.1017" style="stop-color:#CB549E"/>
		<stop  offset="0.4161" style="stop-color:#9C4D9D"/>
		<stop  offset="0.6814" style="stop-color:#7B499C"/>
		<stop  offset="0.884" style="stop-color:#65479C"/>
		<stop  offset="1" style="stop-color:#5D469B"/>
	</linearGradient>
	<path id="XMLID_777_" class="st4" d="M37.5,50.8L35.2,49c-0.9-0.7-0.7-2,0.3-2.4l2.7-1.1l2.7-1.1c1-0.4,2.1,0.4,1.9,1.5l-0.4,2.8
		L42,51.6c-0.1,1.1-1.4,1.6-2.3,0.9L37.5,50.8z"/>
	<linearGradient id="XMLID_4_" gradientUnits="userSpaceOnUse" x1="14.0503" y1="6.7365" x2="20.3979" y2="6.7365">
		<stop  offset="0" style="stop-color:#DB569F"/>
		<stop  offset="0.1017" style="stop-color:#CB549E"/>
		<stop  offset="0.4161" style="stop-color:#9C4D9D"/>
		<stop  offset="0.6814" style="stop-color:#7B499C"/>
		<stop  offset="0.884" style="stop-color:#65479C"/>
		<stop  offset="1" style="stop-color:#5D469B"/>
	</linearGradient>
	<path id="XMLID_776_" class="st5" d="M16.7,4.5l2-1c0.8-0.4,1.7,0.2,1.6,1.1l-0.2,2.3l-0.2,2.3c-0.1,0.9-1,1.3-1.8,0.9l-1.9-1.3
		l-1.9-1.3c-0.7-0.5-0.6-1.6,0.1-1.9L16.7,4.5z"/>
	<linearGradient id="XMLID_5_" gradientUnits="userSpaceOnUse" x1="66.8587" y1="44.9771" x2="70.0456" y2="44.9771">
		<stop  offset="0" style="stop-color:#DB569F"/>
		<stop  offset="0.1017" style="stop-color:#CB549E"/>
		<stop  offset="0.4161" style="stop-color:#9C4D9D"/>
		<stop  offset="0.6814" style="stop-color:#7B499C"/>
		<stop  offset="0.884" style="stop-color:#65479C"/>
		<stop  offset="1" style="stop-color:#5D469B"/>
	</linearGradient>
	<path id="XMLID_775_" class="st6" d="M67.7,44.4l0.7-0.8c0.3-0.3,0.8-0.2,0.9,0.2l0.3,1l0.3,1c0.1,0.4-0.2,0.8-0.6,0.7l-1.1-0.2
		l-1.1-0.2c-0.4-0.1-0.6-0.6-0.3-0.9L67.7,44.4z"/>
	<linearGradient id="XMLID_6_" gradientUnits="userSpaceOnUse" x1="57.6055" y1="11.9987" x2="63.2494" y2="11.9987">
		<stop  offset="0" style="stop-color:#DB569F"/>
		<stop  offset="0.1017" style="stop-color:#CB549E"/>
		<stop  offset="0.4161" style="stop-color:#9C4D9D"/>
		<stop  offset="0.6814" style="stop-color:#7B499C"/>
		<stop  offset="0.884" style="stop-color:#65479C"/>
		<stop  offset="1" style="stop-color:#5D469B"/>
	</linearGradient>
	<path id="XMLID_774_" class="st7" d="M63,11.9l0.2,2c0.1,0.8-0.7,1.3-1.4,1L60,14.1l-1.8-0.8C57.5,13,57.4,12,58,11.6l1.6-1.2
		l1.6-1.2c0.6-0.5,1.5-0.1,1.6,0.7L63,11.9z"/>
	<linearGradient id="XMLID_7_" gradientUnits="userSpaceOnUse" x1="23.9307" y1="9.168" x2="48.7111" y2="9.168">
		<stop  offset="0" style="stop-color:#DB569F"/>
		<stop  offset="0.1017" style="stop-color:#CB549E"/>
		<stop  offset="0.4161" style="stop-color:#9C4D9D"/>
		<stop  offset="0.6814" style="stop-color:#7B499C"/>
		<stop  offset="0.884" style="stop-color:#65479C"/>
		<stop  offset="1" style="stop-color:#5D469B"/>
	</linearGradient>
	<polyline id="XMLID_773_" class="st8" points="29.7,18.3 23.9,14.6 23.9,7.4 43,0 48.7,3.7 	"/>
	<linearGradient id="XMLID_8_" gradientUnits="userSpaceOnUse" x1="50.6998" y1="44.0855" x2="54.1218" y2="44.0855">
		<stop  offset="0" style="stop-color:#DB569F"/>
		<stop  offset="0.1017" style="stop-color:#CB549E"/>
		<stop  offset="0.4161" style="stop-color:#9C4D9D"/>
		<stop  offset="0.6814" style="stop-color:#7B499C"/>
		<stop  offset="0.884" style="stop-color:#65479C"/>
		<stop  offset="1" style="stop-color:#5D469B"/>
	</linearGradient>
	<polygon id="XMLID_772_" class="st9" points="50.7,47.5 54.1,46.2 53.7,42.5 50.7,40.7 	"/>
	<linearGradient id="XMLID_9_" gradientUnits="userSpaceOnUse" x1="45.5779" y1="32.5736" x2="66.688" y2="32.5736">
		<stop  offset="0" style="stop-color:#DB569F"/>
		<stop  offset="0.1017" style="stop-color:#CB549E"/>
		<stop  offset="0.4161" style="stop-color:#9C4D9D"/>
		<stop  offset="0.6814" style="stop-color:#7B499C"/>
		<stop  offset="0.884" style="stop-color:#65479C"/>
		<stop  offset="1" style="stop-color:#5D469B"/>
	</linearGradient>
	<polyline id="XMLID_771_" class="st10" points="60.7,54 66.7,51.6 63.3,40.7 66.2,39.7 66.4,21.5 50.5,11.1 45.6,13.2 	"/>
	<linearGradient id="XMLID_10_" gradientUnits="userSpaceOnUse" x1="67.0617" y1="28.489" x2="81.8352" y2="28.489">
		<stop  offset="0" style="stop-color:#DB569F"/>
		<stop  offset="0.1017" style="stop-color:#CB549E"/>
		<stop  offset="0.4161" style="stop-color:#9C4D9D"/>
		<stop  offset="0.6814" style="stop-color:#7B499C"/>
		<stop  offset="0.884" style="stop-color:#65479C"/>
		<stop  offset="1" style="stop-color:#5D469B"/>
	</linearGradient>
	<polygon id="XMLID_770_" class="st11" points="81.8,18 78.6,15.9 74.1,17.7 74.8,20.3 71.9,18.5 68.5,19.9 71.2,30.6 67.1,39.3 
		69.8,41.1 	"/>
	<linearGradient id="XMLID_11_" gradientUnits="userSpaceOnUse" x1="74.3588" y1="33.4774" x2="78.1403" y2="33.4774">
		<stop  offset="0" style="stop-color:#DB569F"/>
		<stop  offset="0.1017" style="stop-color:#CB549E"/>
		<stop  offset="0.4161" style="stop-color:#9C4D9D"/>
		<stop  offset="0.6814" style="stop-color:#7B499C"/>
		<stop  offset="0.884" style="stop-color:#65479C"/>
		<stop  offset="1" style="stop-color:#5D469B"/>
	</linearGradient>
	<polygon id="XMLID_769_" class="st12" points="78.1,37.7 74.4,35.3 75,29.3 76.4,30.3 	"/>
	<polygon id="XMLID_768_" class="st1" points="78.2,27.9 81.6,36.3 78.1,37.7 76.3,30.6 74.1,39.3 69.8,41.1 73.7,29.7 71.8,21.9 
		75.3,20.6 76.2,28.6 77.4,19.8 81.8,18 	"/>
	<linearGradient id="XMLID_12_" gradientUnits="userSpaceOnUse" x1="16.2664" y1="55.0325" x2="28.7091" y2="55.0325">
		<stop  offset="0" style="stop-color:#DB569F"/>
		<stop  offset="0.1017" style="stop-color:#CB549E"/>
		<stop  offset="0.4161" style="stop-color:#9C4D9D"/>
		<stop  offset="0.6814" style="stop-color:#7B499C"/>
		<stop  offset="0.884" style="stop-color:#65479C"/>
		<stop  offset="1" style="stop-color:#5D469B"/>
	</linearGradient>
	<polygon id="XMLID_767_" class="st13" points="21.8,50.1 16.3,52.2 23.1,56.8 23.1,60 28.7,57.7 28.7,54.6 	"/>
	<polyline id="XMLID_766_" class="st1" points="23.1,60.1 23.1,56.8 16.3,52.2 16.3,55.5 23.1,60 	"/>
	<linearGradient id="XMLID_13_" gradientUnits="userSpaceOnUse" x1="7.0005" y1="39.5289" x2="9.2055" y2="39.5289">
		<stop  offset="0" style="stop-color:#DB569F"/>
		<stop  offset="0.1017" style="stop-color:#CB549E"/>
		<stop  offset="0.4161" style="stop-color:#9C4D9D"/>
		<stop  offset="0.6814" style="stop-color:#7B499C"/>
		<stop  offset="0.884" style="stop-color:#65479C"/>
		<stop  offset="1" style="stop-color:#5D469B"/>
	</linearGradient>
	<polygon id="XMLID_765_" class="st14" points="7,44 9.2,43.2 7,35.1 	"/>
	<polygon id="XMLID_764_" class="st1" points="29.8,11.2 29.7,18.3 36.6,15.4 36.7,41.5 43.2,39 43.2,27.4 39.6,25.1 43.2,23.7 
		43.2,23.6 43.2,12.8 48.7,10.7 48.7,3.7 	"/>
	<linearGradient id="XMLID_14_" gradientUnits="userSpaceOnUse" x1="29.6552" y1="28.5236" x2="43.165" y2="28.5236">
		<stop  offset="0" style="stop-color:#DB569F"/>
		<stop  offset="0.1017" style="stop-color:#CB549E"/>
		<stop  offset="0.4161" style="stop-color:#9C4D9D"/>
		<stop  offset="0.6814" style="stop-color:#7B499C"/>
		<stop  offset="0.884" style="stop-color:#65479C"/>
		<stop  offset="1" style="stop-color:#5D469B"/>
	</linearGradient>
	<polygon id="XMLID_763_" class="st15" points="39.6,25.1 36.7,26.1 36.6,15.4 29.7,18.3 29.7,18.8 29.7,21.8 33.3,24.1 29.7,25.6 
		29.7,37 36.7,41.6 36.7,30 43.2,27.4 	"/>
	<polygon id="XMLID_762_" class="st1" points="17.2,19.4 12.9,31 7.2,13 1,9 1,40.2 7,44 7,35.1 9.9,45.9 15,49.2 16.3,39.9 
		16.3,42.6 20.4,45.2 23.1,47 23.1,23.2 	"/>
	<linearGradient id="XMLID_15_" gradientUnits="userSpaceOnUse" x1="15.0201" y1="35.9143" x2="28.709" y2="35.9143">
		<stop  offset="0" style="stop-color:#DB569F"/>
		<stop  offset="0.1017" style="stop-color:#CB549E"/>
		<stop  offset="0.4161" style="stop-color:#9C4D9D"/>
		<stop  offset="0.6814" style="stop-color:#7B499C"/>
		<stop  offset="0.884" style="stop-color:#65479C"/>
		<stop  offset="1" style="stop-color:#5D469B"/>
	</linearGradient>
	<polygon id="XMLID_761_" class="st16" points="22.9,17.3 17.2,19.4 23.1,23.2 23.1,47 22.1,46.4 16.3,42.6 16.3,39.9 15,49.1 
		15,49.2 16.3,48.7 16.3,46.8 18.1,48 23.1,51.3 23.1,54.6 28.7,52.4 28.7,21 	"/>
	<polygon id="XMLID_760_" class="st1" points="61.8,23.6 45.6,13.2 45.6,22 49.4,24.4 45.6,25.9 45.6,44.2 50.7,47.5 50.7,40.7 
		53.7,42.5 54.5,50 60.7,54 57.8,41.1 61.8,39.2 	"/>
	<linearGradient id="XMLID_16_" gradientUnits="userSpaceOnUse" x1="45.5433" y1="28.934" x2="56.958" y2="28.934">
		<stop  offset="0" style="stop-color:#DB569F"/>
		<stop  offset="0.1017" style="stop-color:#CB549E"/>
		<stop  offset="0.4161" style="stop-color:#9C4D9D"/>
		<stop  offset="0.6814" style="stop-color:#7B499C"/>
		<stop  offset="0.884" style="stop-color:#65479C"/>
		<stop  offset="1" style="stop-color:#5D469B"/>
	</linearGradient>
	<polygon id="XMLID_759_" class="st17" points="49.4,24.4 45.5,25.9 56.9,33.4 57,29.4 	"/>
	<polyline id="XMLID_758_" class="st1" points="23.1,54.6 23.1,51.3 16.3,46.8 16.3,50 23.1,54.5 	"/>
	<linearGradient id="XMLID_17_" gradientUnits="userSpaceOnUse" x1="0.969" y1="18.8459" x2="16.1909" y2="18.8459">
		<stop  offset="0" style="stop-color:#DB569F"/>
		<stop  offset="0.1017" style="stop-color:#CB549E"/>
		<stop  offset="0.4161" style="stop-color:#9C4D9D"/>
		<stop  offset="0.6814" style="stop-color:#7B499C"/>
		<stop  offset="0.884" style="stop-color:#65479C"/>
		<stop  offset="1" style="stop-color:#5D469B"/>
	</linearGradient>
	<polygon id="XMLID_757_" class="st18" points="1,9 7.2,13 12.9,31 16.2,22 12.9,10.8 6.7,6.7 	"/>
</g>
</svg>
