<svg width="433" height="887" viewBox="0 0 433 887" fill="none" xmlns="http://www.w3.org/2000/svg">
<g opacity="0.3">
<path d="M290.8 816.847L423.7 882.116L432.3 886.407V880.234V830.624L290.8 760.537V816.847ZM301.9 776.045L421.1 835.065V870.824L301.9 812.255V776.045Z" fill="url(#paint0_linear_202_32)"/>
<path d="M290.8 682.621V738.254V739.007L423.7 804.275L432.3 808.792V802.393V801.64V752.708V751.955L290.8 681.868V682.621ZM301.9 733.662V698.204L421.1 757.225V792.23L301.9 733.662Z" fill="url(#paint1_linear_202_32)"/>
<path d="M310.6 150.535L232.1 309.528L129.2 62.3805L0 0.499512V71.2637V149.104V456.627V527.392V605.232L125.8 665.156V561.494L171.2 687.59L277 739.082L290.8 661.919V667.866V675.695L423.7 740.964L432.3 744.954V739.007V731.177V707.69V689.321V681.492V660.338V629.849V610.728V559.01V358.235V280.394V209.63L310.6 150.535ZM290.8 449.852L268.3 576.249L180.9 533.715L114.7 349.804V420.568V501.344L11.2 452.035V164.462L119.8 216.481L231.2 484.105L316.2 311.862L421.1 362.827V544.029L377.1 523.477L301.9 486.74V450.454L290.8 449.852ZM114.7 511.281V572.109L11.2 522.875V461.972L114.7 511.281ZM11.2 600.715V532.812L114.7 582.121V650.024L11.2 600.715ZM268.3 724.854L180.9 682.32L125.8 529.424V516.626V483.653L171.2 609.749L277 661.241L290.8 584.078V597.102L290.9 598.532L268.3 724.854ZM421.2 721.918L302 663.349V645.357L371.2 679.233L421.2 702.571V721.918ZM301.9 617.051V602.597L421.1 661.166V676.147L301.9 617.051ZM421.2 651.078L302 592.51V567.516L371.2 601.393L421.2 624.73V651.078ZM421.2 605.307L302 546.287V521.219L290.9 520.692L268.4 647.088L181 604.555L125.9 451.659V412.964L171.3 539.06L277.1 590.552L294.5 493.139L371.3 530.704L421.3 554.041V605.307H421.2ZM310.6 299.139L232.1 458.208L129.2 210.985L11.2 154.449V86.5458L119.8 138.565L231.2 406.264L316.2 234.021L421.1 284.987V352.815L310.6 299.139ZM310.6 221.299L232.1 380.292L129.2 133.145L11.2 76.6087V15.7816L119.8 67.8008L231.2 335.425L316.2 163.182L421.1 214.147V274.974L310.6 221.299Z" fill="url(#paint2_linear_202_32)"/>
</g>
<defs>
<linearGradient id="paint0_linear_202_32" x1="290.793" y1="823.444" x2="432.308" y2="823.444" gradientUnits="userSpaceOnUse">
<stop stop-color="#DB569F"/>
<stop offset="0.1017" stop-color="#CB549E"/>
<stop offset="0.4161" stop-color="#9C4D9D"/>
<stop offset="0.6814" stop-color="#7B499C"/>
<stop offset="0.884" stop-color="#65479C"/>
<stop offset="1" stop-color="#5D469B"/>
</linearGradient>
<linearGradient id="paint1_linear_202_32" x1="290.793" y1="745.305" x2="432.308" y2="745.305" gradientUnits="userSpaceOnUse">
<stop stop-color="#DB569F"/>
<stop offset="0.1017" stop-color="#CB549E"/>
<stop offset="0.4161" stop-color="#9C4D9D"/>
<stop offset="0.6814" stop-color="#7B499C"/>
<stop offset="0.884" stop-color="#65479C"/>
<stop offset="1" stop-color="#5D469B"/>
</linearGradient>
<linearGradient id="paint2_linear_202_32" x1="0.0221" y1="372.748" x2="432.308" y2="372.748" gradientUnits="userSpaceOnUse">
<stop stop-color="#DB569F"/>
<stop offset="0.1017" stop-color="#CB549E"/>
<stop offset="0.4161" stop-color="#9C4D9D"/>
<stop offset="0.6814" stop-color="#7B499C"/>
<stop offset="0.884" stop-color="#65479C"/>
<stop offset="1" stop-color="#5D469B"/>
</linearGradient>
</defs>
</svg>
