<?xml version="1.0" encoding="UTF-8"?><svg id="Layer_1" xmlns="http://www.w3.org/2000/svg" viewBox="0 0 374.53 66.37"><defs><style>.cls-1{fill:#fff;}</style></defs><polygon class="cls-1" points="87.64 12.8 105.98 12.8 105.98 0 87.64 0 74.84 0 74.84 12.8 74.84 26.78 74.84 39.59 74.84 53.57 74.84 66.37 87.64 66.37 105.98 66.37 105.98 53.57 87.64 53.57 87.64 39.59 116.62 39.59 116.62 26.78 87.64 26.78 87.64 12.8"/><polygon class="cls-1" points="262.13 12.8 280.46 12.8 280.46 0 262.13 0 249.33 0 249.33 12.8 249.33 26.78 249.33 39.59 249.33 53.57 249.33 66.37 262.13 66.37 280.46 66.37 280.46 53.57 262.13 53.57 262.13 39.59 291.11 39.59 291.11 26.78 262.13 26.78 262.13 12.8"/><g><rect class="cls-1" x="128.86" y="23.96" width="12.8" height="42.41"/><rect class="cls-1" x="115.22" y="0" width="41.78" height="12.8"/></g><g><rect class="cls-1" x="346.39" y="23.96" width="12.8" height="42.41"/><rect class="cls-1" x="332.75" width="41.78" height="12.8"/></g><polygon class="cls-1" points="36.12 48.97 13.15 0 0 0 0 66.37 13.15 66.37 13.15 29.15 30.71 63.1 42.77 63.13 58.41 30.05 58.41 50.3 71.21 50.3 71.21 0 58.41 0 36.12 48.97"/><polygon class="cls-1" points="149.93 66.37 162.78 66.37 175.69 29.65 189.32 66.37 201.86 66.37 175.9 .76 149.93 66.37"/><polygon class="cls-1" points="220.02 12.8 238.35 12.8 238.35 0 220.02 0 207.21 0 207.21 12.8 207.21 26.78 207.21 39.59 207.21 66.37 220.02 66.37 220.02 39.59 247.49 39.59 247.49 26.78 220.02 26.78 220.02 12.8"/><path class="cls-1" d="M310.5,12.82c4.75,0,8.62,3.38,8.62,7.54h11.71c0-10.61-9.12-19.24-20.32-19.24s-20.32,8.63-20.32,19.24,9.02,19.15,20.14,19.24c4.48,.26,8.04,3.53,8.04,7.52s-3.87,7.54-8.62,7.54v11.71c11.21,0,20.32-8.63,20.32-19.24s-9.02-19.15-20.14-19.24c-4.48-.26-8.04-3.53-8.04-7.52s3.87-7.54,8.62-7.54Z"/>
</svg>